<svg width="309" height="76" viewBox="0 0 309 76" fill="none" xmlns="http://www.w3.org/2000/svg">
<path d="M26.5454 0.642914C41.3184 0.642915 53.3219 12.6711 53.3219 27.2439C53.3219 43.8986 36.7017 62.8662 26.5454 75.3571C16.3887 63.5601 1.00493e-05 43.2043 0 27.2439C1.27399e-06 12.6712 12.003 0.643079 26.5454 0.642914ZM37.2209 11.8677C36.2941 10.2136 34.4087 9.34263 32.5486 9.70989L14.5117 13.2715C12.662 13.6367 11.2532 15.1441 11.0136 17.0143L8.68752 35.1696C8.44553 37.0589 9.45192 38.8881 11.177 39.6956L28.2552 47.6905C29.9803 48.498 32.0296 48.0985 33.3254 46.7025L45.7542 33.3135C47.0484 31.9194 47.2952 29.8493 46.3656 28.1898L37.2209 11.8677Z" fill="white"/>
<path d="M283.88 28.0909H290.375V32.4546H290.578C291.052 30.9324 291.948 29.7315 293.267 28.852C294.587 27.9387 296.126 27.4821 297.885 27.4821C301.267 27.4821 303.838 28.6829 305.597 31.0846C307.39 33.4524 308.286 36.852 308.286 41.2833C308.286 45.7484 307.39 49.1818 305.597 51.5835C303.838 53.9852 301.267 55.186 297.885 55.186C296.126 55.186 294.587 54.7294 293.267 53.816C291.982 52.9027 291.085 51.685 290.578 50.1628H290.375V64.7251H283.88V28.0909ZM295.804 49.8076C297.496 49.8076 298.866 49.2495 299.914 48.1332C300.963 47.0169 301.487 45.5116 301.487 43.6173V39.0507C301.487 37.1565 300.963 35.6512 299.914 34.5349C298.866 33.3848 297.496 32.8097 295.804 32.8097C294.248 32.8097 292.946 33.1987 291.897 33.9768C290.883 34.7548 290.375 35.7865 290.375 37.0719V45.4947C290.375 46.8816 290.883 47.9471 291.897 48.6913C292.946 49.4355 294.248 49.8076 295.804 49.8076Z" fill="white"/>
<path d="M275.022 54.5771C273.601 54.5771 272.468 54.1712 271.622 53.3594C270.81 52.5137 270.303 51.3974 270.1 50.0106H269.795C269.356 51.7357 268.459 53.038 267.106 53.9175C265.753 54.7632 264.079 55.186 262.083 55.186C259.377 55.186 257.296 54.4757 255.842 53.0549C254.387 51.6342 253.66 49.7399 253.66 47.3721C253.66 44.6321 254.641 42.6025 256.603 41.2833C258.565 39.9302 261.356 39.2537 264.975 39.2537H269.491V37.3256C269.491 35.8372 269.102 34.6871 268.324 33.8753C267.546 33.0634 266.294 32.6575 264.569 32.6575C263.047 32.6575 261.812 32.9958 260.865 33.6723C259.952 34.315 259.174 35.093 258.531 36.0063L254.675 32.556C255.656 31.0338 256.958 29.8161 258.582 28.9028C260.206 27.9556 262.354 27.4821 265.026 27.4821C268.611 27.4821 271.334 28.2939 273.195 29.9176C275.055 31.5412 275.986 33.8753 275.986 36.9197V49.4017H278.624V54.5771H275.022ZM264.265 50.4672C265.719 50.4672 266.954 50.1459 267.969 49.5032C268.984 48.8604 269.491 47.9133 269.491 46.6617V43.1607H265.33C261.948 43.1607 260.256 44.2431 260.256 46.408V47.2706C260.256 48.353 260.595 49.1649 261.271 49.7061C261.981 50.2135 262.979 50.4672 264.265 50.4672Z" fill="white"/>
<path d="M210.496 54.5771V28.0909H216.991V32.5053H217.244C217.752 31.1184 218.564 29.9345 219.68 28.9535C220.796 27.9725 222.352 27.4821 224.348 27.4821C226.175 27.4821 227.748 27.9218 229.067 28.8013C230.386 29.6808 231.367 31.0169 232.01 32.8097H232.111C232.585 31.3214 233.515 30.0698 234.902 29.055C236.323 28.0064 238.098 27.4821 240.23 27.4821C242.834 27.4821 244.83 28.3785 246.217 30.1713C247.638 31.9641 248.348 34.518 248.348 37.833V54.5771H241.853V38.4926C241.853 34.704 240.432 32.8097 237.591 32.8097C236.948 32.8097 236.323 32.9112 235.714 33.1142C235.139 33.2833 234.614 33.5539 234.141 33.926C233.701 34.2643 233.346 34.704 233.075 35.2453C232.805 35.7527 232.669 36.3615 232.669 37.0719V54.5771H226.175V38.4926C226.175 34.704 224.754 32.8097 221.912 32.8097C221.304 32.8097 220.695 32.9112 220.086 33.1142C219.511 33.2833 218.986 33.5539 218.513 33.926C218.073 34.2643 217.701 34.704 217.397 35.2453C217.126 35.7527 216.991 36.3615 216.991 37.0719V54.5771H210.496Z" fill="white"/>
<path d="M204.021 54.5771H179.463V48.3868L190.575 38.6448C192.469 36.9873 193.856 35.4989 194.736 34.1797C195.615 32.8266 196.055 31.3721 196.055 29.816V29.1564C196.055 27.6004 195.548 26.4165 194.533 25.6046C193.518 24.759 192.283 24.3361 190.829 24.3361C189.002 24.3361 187.615 24.8604 186.668 25.9091C185.721 26.9239 185.044 28.1585 184.639 29.6131L178.854 27.3805C179.226 26.1966 179.751 25.0803 180.427 24.0317C181.104 22.9492 181.949 22.0021 182.964 21.1903C184.013 20.3784 185.23 19.7357 186.617 19.2621C188.004 18.7886 189.594 18.5518 191.387 18.5518C193.247 18.5518 194.905 18.8224 196.359 19.3636C197.814 19.871 199.032 20.5983 200.013 21.5454C201.028 22.4926 201.789 23.6089 202.296 24.8943C202.837 26.1797 203.108 27.5835 203.108 29.1057C203.108 30.594 202.871 31.9471 202.397 33.1649C201.924 34.3826 201.281 35.5496 200.469 36.6659C199.658 37.7484 198.71 38.797 197.628 39.8118C196.545 40.7928 195.395 41.7906 194.178 42.8054L186.719 48.945H204.021V54.5771Z" fill="white"/>
<path d="M162.485 55.186C160.523 55.186 158.764 54.8647 157.208 54.222C155.685 53.5454 154.383 52.6152 153.301 51.4313C152.252 50.2135 151.44 48.759 150.865 47.0676C150.29 45.3425 150.003 43.4144 150.003 41.2833C150.003 39.186 150.273 37.2918 150.814 35.6004C151.389 33.9091 152.201 32.4715 153.25 31.2875C154.299 30.0698 155.584 29.1396 157.106 28.4969C158.628 27.8203 160.353 27.4821 162.282 27.4821C164.345 27.4821 166.138 27.8372 167.66 28.5476C169.182 29.258 170.434 30.222 171.415 31.4398C172.396 32.6575 173.123 34.0782 173.597 35.7019C174.104 37.2918 174.358 39 174.358 40.8266V42.9577H156.751V43.6173C156.751 45.5454 157.292 47.1015 158.375 48.2854C159.457 49.4355 161.064 50.0106 163.195 50.0106C164.819 50.0106 166.138 49.6723 167.153 48.9958C168.201 48.3192 169.131 47.4566 169.943 46.408L173.444 50.315C172.362 51.8372 170.874 53.038 168.979 53.9175C167.119 54.7632 164.954 55.186 162.485 55.186ZM162.383 32.3531C160.658 32.3531 159.288 32.9281 158.273 34.0782C157.258 35.2283 156.751 36.7167 156.751 38.5433V38.9493H167.609V38.4926C167.609 36.666 167.153 35.1945 166.239 34.0782C165.36 32.9281 164.074 32.3531 162.383 32.3531Z" fill="white"/>
<path d="M106.737 54.5771V28.0909H113.232V32.5053H113.485C113.993 31.1184 114.805 29.9345 115.921 28.9535C117.037 27.9725 118.593 27.4821 120.589 27.4821C122.416 27.4821 123.988 27.9218 125.308 28.8013C126.627 29.6808 127.608 31.0169 128.251 32.8097H128.352C128.826 31.3214 129.756 30.0698 131.143 29.055C132.564 28.0064 134.339 27.4821 136.47 27.4821C139.075 27.4821 141.071 28.3785 142.458 30.1713C143.879 31.9641 144.589 34.518 144.589 37.833V54.5771H138.094V38.4926C138.094 34.704 136.673 32.8097 133.832 32.8097C133.189 32.8097 132.564 32.9112 131.955 33.1142C131.38 33.2833 130.855 33.5539 130.382 33.926C129.942 34.2643 129.587 34.704 129.316 35.2453C129.046 35.7527 128.91 36.3615 128.91 37.0719V54.5771H122.416V38.4926C122.416 34.704 120.995 32.8097 118.153 32.8097C117.545 32.8097 116.936 32.9112 116.327 33.1142C115.752 33.2833 115.227 33.5539 114.754 33.926C114.314 34.2643 113.942 34.704 113.638 35.2453C113.367 35.7527 113.232 36.3615 113.232 37.0719V54.5771H106.737Z" fill="white"/>
<path d="M95.9615 24.2346C94.6084 24.2346 93.6275 23.9302 93.0186 23.3213C92.4435 22.7124 92.156 21.9344 92.156 20.9872V19.9724C92.156 19.0253 92.4435 18.2473 93.0186 17.6384C93.6275 17.0295 94.6084 16.7251 95.9615 16.7251C97.2807 16.7251 98.2448 17.0295 98.8537 17.6384C99.4625 18.2473 99.767 19.0253 99.767 19.9724V20.9872C99.767 21.9344 99.4625 22.7124 98.8537 23.3213C98.2448 23.9302 97.2807 24.2346 95.9615 24.2346ZM92.7141 28.0908H99.2088V54.577H92.7141V28.0908Z" fill="white"/>
<path d="M82.0068 54.5771C79.7743 54.5771 78.0661 54.002 76.8821 52.8519C75.732 51.668 75.157 49.9936 75.157 47.8287V33.2663H71.25V28.0909H73.2796C74.2606 28.0909 74.9202 27.871 75.2584 27.4313C75.6305 26.9577 75.8166 26.2642 75.8166 25.3509V20.8351H81.6517V28.0909H87.0808V33.2663H81.6517V49.4016H86.6749V54.5771H82.0068Z" fill="white"/>
</svg>
